<svg xmlns:xlink="http://www.w3.org/1999/xlink" xmlns="http://www.w3.org/2000/svg" role="img" data-di-res-id="3bdedd5d-3c51ea59" data-di-rand="1693602435734" width="64"  height="64" ><defs><symbol id="ps-icon:unfavorite" viewBox="0 0 64 64"><path fill-rule="nonzero" stroke="none" stroke-width="1" d="M40.045 12.5c3.052 0 5.9 1.388 7.98 3.785 2.045 2.35 3.205 5.503 3.205 8.859 0 3.222-1.073 6.266-2.97 8.583l-.232.274-16.663 19.161L14.71 34.003c-2.046-2.344-3.208-5.501-3.211-8.859 0-3.35 1.164-6.503 3.21-8.86 2.086-2.398 4.931-3.787 7.975-3.784 3.054 0 5.903 1.387 7.98 3.78.186.213.365.435.537.667l.163.229.164-.231c.086-.116.173-.229.262-.34l.272-.324c2.084-2.398 4.93-3.784 7.982-3.781zm5.715 5.753c-1.529-1.762-3.562-2.753-5.717-2.753-2.153-.002-4.185.987-5.718 2.751-.535.613-1.005 1.362-1.41 2.236l-.17.383-1.385 3.26-1.377-3.264c-.435-1.032-.962-1.909-1.58-2.615-1.528-1.76-3.562-2.751-5.72-2.751-2.144-.002-4.176.99-5.709 2.751-1.568 1.808-2.474 4.262-2.474 6.892.002 2.519.826 4.871 2.264 6.641l.21.249L31.365 48.59l14.398-16.557c1.492-1.716 2.383-4.033 2.46-6.531l.006-.358c0-2.518-.822-4.867-2.26-6.642l-.21-.25z"></path></symbol></defs><title>Adicionar à lista de desejos</title><use href="#ps-icon:unfavorite" fill="#FFFFFF"></use></svg>